Coordinates
version=1
nRows=26
nColumns=22
inDegrees=yes

Units are S.I. units (second, meters, Newtons, ...)
If the header above contains a line with 'inDegrees', this indicates whether rotational values are in degrees (yes) or radians (no).

endheader
time	pelvis_tilt	pelvis_list	pelvis_rotation	pelvis_tx	pelvis_ty	pelvis_tz	hip_flexion_r	hip_adduction_r	hip_rotation_r	knee_angle_r	ankle_angle_r	subtalar_angle_r	hip_flexion_l	hip_adduction_l	hip_rotation_l	knee_angle_l	ankle_angle_l	subtalar_angle_l	lumbar_extension	lumbar_bending	lumbar_rotation
      4.15000000	     -3.90451554	      1.85699441	     -0.35003895	      0.32316943	      0.94250787	     -0.61688176	     18.05453661	      1.54064113	      0.69786246	    -69.54864225	     -9.54484285	      0.69939930	     20.38709712	     -0.88249056	     12.60716952	    -25.14437026	     12.27924213	     10.70385472	     -0.87451206	     -0.74402910	     -8.27168266
      4.16000000	     -3.79613555	      1.82368875	     -0.86501377	      0.33088302	      0.94411944	     -0.61705104	     19.42898691	      1.38164596	     -0.28591180	    -70.25231967	     -8.40106382	     -0.09839212	     19.39660074	     -1.09342642	     12.13851830	    -24.61147869	     12.53550858	     10.56686108	     -1.04207884	     -0.70509111	     -8.66726482
      4.17000000	     -3.70166531	      1.74888357	     -1.35882953	      0.33847631	      0.94567724	     -0.61700070	     20.74723583	      1.31987896	     -1.25790928	    -70.68914610	     -7.23523950	     -0.69280708	     18.41820873	     -1.34730347	     11.67930382	    -24.05494708	     12.76782554	     10.47262467	     -1.19517333	     -0.63494471	     -9.08095073
      4.18000000	     -3.64884792	      1.58359322	     -1.84309248	      0.34594283	      0.94713323	     -0.61671279	     22.03483185	      1.40748023	     -2.22270527	    -70.85855779	     -6.04757248	     -0.94448996	     17.48252648	     -1.69796893	     11.25155344	    -23.48642495	     13.02346168	     10.43008680	     -1.30557087	     -0.47580380	     -9.45318122
      4.19000000	     -3.57548763	      1.37906663	     -2.30738703	      0.35334977	      0.94856374	     -0.61624633	     23.21660427	      1.55899881	     -3.21155671	    -70.76725453	     -4.92344462	     -1.35477112	     16.51057191	     -2.08670886	     10.83420572	    -22.88828053	     13.26683068	     10.32344624	     -1.44159832	     -0.28071870	     -9.88987579
      4.20000000	     -3.58308493	      1.19955560	     -2.78418016	      0.36064574	      0.94979246	     -0.61562102	     24.43469512	      1.70545704	     -4.16263484	    -70.47755884	     -3.75558019	     -1.45979473	     15.61598539	     -2.45333263	     10.39969866	    -22.27224956	     13.48017754	     10.28430306	     -1.48673375	     -0.11556871	    -10.27359128
      4.21000000	     -3.55782487	      0.94339189	     -3.24796822	      0.36792518	      0.95099387	     -0.61485015	     25.51934109	      1.93181581	     -5.14076174	    -69.93509371	     -2.60571928	     -1.34794096	     14.68290769	     -2.89391761	      9.97060879	    -21.65938113	     13.72655717	     10.19427061	     -1.57211737	      0.13703008	    -10.71133954
      4.22000000	     -3.56678168	      0.70292749	     -3.73181458	      0.37516577	      0.95206438	     -0.61394177	     26.57316673	      2.13874381	     -6.08682297	    -69.19779810	     -1.45828603	     -0.81709752	     13.75331704	     -3.31706860	      9.55421388	    -21.00092345	     13.94284490	     10.08538639	     -1.61763796	      0.37408391	    -11.09169990
      4.23000000	     -3.60047265	      0.48502848	     -4.22125922	      0.38232992	      0.95297820	     -0.61296585	     27.58863019	      2.30076140	     -7.01920336	    -68.28352789	     -0.33938176	     -0.02379107	     12.86851428	     -3.70872762	      9.09302282	    -20.37433962	     14.15181277	      9.98272717	     -1.63936920	      0.59889953	    -11.47942915
      4.24000000	     -3.64138245	      0.27414403	     -4.71391767	      0.38943575	      0.95375692	     -0.61189505	     28.53999301	      2.42548550	     -7.95845026	    -67.19723428	      0.69023336	      0.90988892	     12.00263886	     -4.08462574	      8.61815583	    -19.77263954	     14.36552984	      9.87458397	     -1.65718347	      0.82181101	    -11.85667669
      4.25000000	     -3.68748082	      0.07154462	     -5.21236149	      0.39646935	      0.95440534	     -0.61076118	     29.42807245	      2.50645815	     -8.90358011	    -65.95387651	      1.59864970	      1.91363163	     11.15147656	     -4.43946968	      8.14121957	    -19.19092645	     14.58124494	      9.75580468	     -1.67550373	      1.04712932	    -12.21533928
      4.26000000	     -3.73432004	     -0.12099310	     -5.71416023	      0.40344664	      0.95492006	     -0.60957000	     30.24705839	      2.54248406	     -9.85788136	    -64.56855176	      2.37091044	      2.89267491	     10.31523357	     -4.76937297	      7.66485682	    -18.63809803	     14.80476229	      9.62494060	     -1.69747432	      1.27466169	    -12.54241543
      4.27000000	     -3.77927601	     -0.28739887	     -6.22276439	      0.41037135	      0.95529387	     -0.60831688	     30.99933964	      2.52312603	    -10.80548729	    -63.06075833	      3.04055288	      3.79775173	      9.50337718	     -5.05904791	      7.16341417	    -18.13316523	     15.02733965	      9.47607364	     -1.72399236	      1.48320104	    -12.84584077
      4.28000000	     -3.82686691	     -0.46993704	     -6.72675838	      0.41725312	      0.95552432	     -0.60698010	     31.67989908	      2.49516094	    -11.78457288	    -61.42638058	      3.53930355	      4.28279186	      8.73075679	     -5.35562093	      6.64236742	    -17.69805996	     15.29120381	      9.34079309	     -1.75352241	      1.71936117	    -13.13855753
      4.29000000	     -3.86051151	     -0.57139329	     -7.26283369	      0.42413904	      0.95562582	     -0.60558555	     32.29710624	      2.38194235	    -12.67929193	    -59.71346932	      4.04541769	      4.98106719	      7.92017154	     -5.54808259	      6.14178947	    -17.22719811	     15.50179627	      9.13126729	     -1.78835593	      1.87726915	    -13.33247579
      4.30000000	     -3.91978917	     -0.70288836	     -7.78445973	      0.43097262	      0.95553376	     -0.60409742	     32.87220868	      2.28968602	    -13.60537863	    -57.89336038	      4.38142490	      5.19039766	      7.19729383	     -5.76778653	      5.60281049	    -16.86568476	     15.78125206	      8.96895491	     -1.80301493	      2.08040550	    -13.54100495
      4.31000000	     -3.97265497	     -0.80626487	     -8.31813640	      0.43780820	      0.95528698	     -0.60251542	     33.38471079	      2.17120020	    -14.49406130	    -55.99816929	      4.67228230	      5.31992484	      6.47086475	     -5.94514665	      5.07345315	    -16.51747342	     16.05829501	      8.77963534	     -1.82168477	      2.25978592	    -13.67752578
      4.32000000	     -3.98232997	     -0.87634382	     -8.86782644	      0.44467870	      0.95494298	     -0.60082745	     33.79958450	      2.03160592	    -15.31115442	    -54.03289298	      4.86228994	      5.38073643	      5.67920723	     -6.07097840	      4.54757797	    -16.14415424	     16.33388046	      8.46982968	     -1.88276632	      2.40529148	    -13.81224917
      4.33000000	     -4.05106195	     -0.95056219	     -9.40843699	      0.45146862	      0.95434189	     -0.59904478	     34.23067559	      1.90846536	    -16.11266887	    -52.00823879	      4.97291640	      5.35390036	      5.01094239	     -6.20533620	      3.99547587	    -15.87571975	     16.66441077	      8.25361945	     -1.88677391	      2.57164048	    -13.91229134
      4.34000000	     -4.08640569	     -0.99407193	     -9.95617138	      0.45828655	      0.95363307	     -0.59716376	     34.57949817	      1.76836536	    -16.84810333	    -49.93085729	      5.01688877	      5.26072591	      4.29729696	     -6.29410750	      3.45062353	    -15.59592646	     16.99561043	      7.99394349	     -1.92385163	      2.70848121	    -14.00287681
      4.35000000	     -4.09081607	     -0.98840585	    -10.50751453	      0.46513730	      0.95281513	     -0.59519947	     34.85782212	      1.59232996	    -17.51326262	    -47.81485289	      5.01454695	      5.04265526	      3.53405823	     -6.31443620	      2.94155452	    -15.28482037	     17.31912664	      7.66152989	     -1.98394232	      2.79486948	    -14.08122607
      4.36000000	     -4.11920713	     -0.96860243	    -11.05112615	      0.47197958	      0.95183055	     -0.59315110	     35.11688629	      1.41271414	    -18.14428204	    -45.65853777	      4.95845327	      4.87062032	      2.82502378	     -6.32281178	      2.40823182	    -15.02221976	     17.66237166	      7.41613764	     -2.01625908	      2.88052000	    -14.14669855
      4.37000000	     -4.12865514	     -0.91353758	    -11.59143204	      0.47885741	      0.95075819	     -0.59100549	     35.31201369	      1.21092118	    -18.72094730	    -43.46598530	      4.86840681	      4.65514170	      2.08865820	     -6.28624006	      1.88677218	    -14.74239863	     17.98972323	      7.19384936	     -2.05853452	      2.93105481	    -14.21350145
      4.38000000	     -4.13242576	     -0.83983305	    -12.11290691	      0.48576802	      0.94959620	     -0.58879592	     35.45242615	      0.98774513	    -19.28298571	    -41.24375903	      4.76349319	      4.48902182	      1.36039820	     -6.22655261	      1.35490921	    -14.47904188	     18.31683255	      7.03427059	     -2.09858859	      2.97272270	    -14.29411785
      4.39000000	     -4.09458650	     -0.73518718	    -12.61420440	      0.49277632	      0.94840944	     -0.58650944	     35.50343735	      0.71944989	    -19.85222282	    -39.00898756	      4.66970305	      4.24618134	      0.55888246	     -6.11745025	      0.87567787	    -14.15577873	     18.61542705	      6.89602551	     -2.16511554	      2.97894925	    -14.38014949
      4.40000000	     -4.03062237	     -0.61837082	    -13.08291907	      0.49987736	      0.94719236	     -0.58415574	     35.47665703	      0.41869641	    -20.46221065	    -36.76797298	      4.60548162	      3.94559810	     -0.28012847	     -5.98400277	      0.43422836	    -13.80733547	     18.89249151	      6.78557292	     -2.24494568	      2.97546435	    -14.48757721
